<svg xmlns="http://www.w3.org/2000/svg" width="1280" height="420" viewBox="0 0 1280 420" role="img" aria-labelledby="title desc">
  <title id="title">Ableton MCP README hero</title>
  <desc id="desc">A detailed Ableton-inspired production console showing a local MCP server, LiveAPI bridge, safety gates, session grid, arrangement timeline, device rack, meters, and Ableton Live control lanes.</desc>
  <defs>
    <pattern id="pageGrid" width="24" height="24" patternUnits="userSpaceOnUse">
      <path d="M24 0H0V24" fill="none" stroke="#000" stroke-opacity="0.045" stroke-width="1"/>
    </pattern>
    <pattern id="panelGrid" width="16" height="16" patternUnits="userSpaceOnUse">
      <path d="M16 0H0V16" fill="none" stroke="#000" stroke-opacity="0.075" stroke-width="1"/>
    </pattern>
    <marker id="arrow" viewBox="0 0 10 10" refX="8" refY="5" markerWidth="7" markerHeight="7" orient="auto-start-reverse">
      <path d="M0 0L10 5L0 10Z" fill="#000"/>
    </marker>
  </defs>

  <rect width="1280" height="420" fill="#f7f4ec"/>
  <rect width="1280" height="420" fill="url(#pageGrid)"/>
  <rect x="0" y="0" width="1280" height="18" fill="#000"/>
  <rect x="0" y="402" width="1280" height="18" fill="#000"/>

  <rect x="930" y="28" width="294" height="58" fill="#b6ffc0"/>
  <rect x="622" y="56" width="218" height="62" fill="#b1c5ff"/>
  <rect x="774" y="248" width="424" height="80" fill="#d5b3ff"/>
  <rect x="492" y="320" width="222" height="48" fill="#fbffa7"/>

  <g id="brand-lockup">
    <rect x="42" y="38" width="236" height="236" fill="#ff764d"/>
    <rect x="72" y="68" width="176" height="176" fill="#f7f4ec" stroke="#000" stroke-width="5"/>
    <g fill="#000">
      <rect x="104" y="98" width="13" height="106"/>
      <rect x="126" y="98" width="13" height="106"/>
      <rect x="148" y="98" width="13" height="106"/>
      <rect x="170" y="98" width="13" height="106"/>
      <rect x="198" y="106" width="16" height="13"/>
      <rect x="198" y="136" width="16" height="13"/>
      <rect x="198" y="166" width="16" height="13"/>
    </g>
    <g font-family="Arial, Helvetica, sans-serif" font-weight="900">
      <rect x="42" y="292" width="236" height="82" fill="#000"/>
      <text x="62" y="320" fill="#fff" font-size="22">ABLETON MCP</text>
      <text x="62" y="344" fill="#b6ffc0" font-size="13">LOCAL AI MUSIC CONTROL</text>
      <rect x="62" y="354" width="52" height="12" fill="#fbffa7"/>
      <rect x="122" y="354" width="52" height="12" fill="#b1c5ff"/>
      <rect x="182" y="354" width="52" height="12" fill="#d5b3ff"/>
    </g>
  </g>

  <g id="console" font-family="Arial, Helvetica, sans-serif">
    <rect x="300" y="28" width="924" height="360" fill="#101010" stroke="#000" stroke-width="5"/>

    <g id="transport">
      <rect x="300" y="28" width="924" height="42" fill="#d8d3c8" stroke="#000" stroke-width="2"/>
      <rect x="318" y="42" width="52" height="13" fill="#000"/>
      <text x="382" y="55" fill="#000" font-size="13" font-weight="900">120.00</text>
      <rect x="436" y="42" width="17" height="14" fill="#00c781" stroke="#000" stroke-width="1"/>
      <rect x="462" y="42" width="17" height="14" fill="#0000ff" stroke="#000" stroke-width="1"/>
      <rect x="488" y="42" width="17" height="14" fill="#ff764d" stroke="#000" stroke-width="1"/>
      <text x="528" y="55" fill="#000" font-size="13" font-weight="900">ABLETON MCP PRODUCTION CONSOLE</text>
      <text x="834" y="55" fill="#000" font-size="12" font-weight="900">127.0.0.1 LOOPBACK</text>
      <rect x="996" y="39" width="88" height="20" fill="#000"/>
      <text x="1012" y="54" fill="#b6ffc0" font-size="12" font-weight="900">SAFE</text>
      <rect x="1094" y="39" width="106" height="20" fill="#b6ffc0" stroke="#000" stroke-width="1"/>
      <text x="1106" y="54" fill="#000" font-size="12" font-weight="900">248 TOOLS</text>
    </g>

    <g id="routing">
      <rect x="318" y="76" width="882" height="6" fill="#ff764d"/>
      <rect x="520" y="76" width="174" height="6" fill="#b6ffc0"/>
      <rect x="694" y="76" width="174" height="6" fill="#b1c5ff"/>
      <rect x="868" y="76" width="160" height="6" fill="#d5b3ff"/>
      <rect x="1028" y="76" width="172" height="6" fill="#fbffa7"/>
      <rect x="318" y="82" width="882" height="30" fill="#f7f4ec" stroke="#000" stroke-width="3"/>
      <g font-size="11" font-weight="900">
        <rect x="332" y="90" width="95" height="14" fill="#b1c5ff"/>
        <text x="344" y="101" fill="#000">MCP CLIENTS</text>
        <path d="M434 97H494" stroke="#000" stroke-width="2" marker-end="url(#arrow)"/>
        <rect x="506" y="90" width="92" height="14" fill="#fbffa7"/>
        <text x="520" y="101" fill="#000">SCHEMAS</text>
        <path d="M606 97H666" stroke="#000" stroke-width="2" marker-end="url(#arrow)"/>
        <rect x="678" y="90" width="118" height="14" fill="#b6ffc0"/>
        <text x="688" y="101" fill="#000">RUNTIME GUARDS</text>
        <path d="M804 97H864" stroke="#000" stroke-width="2" marker-end="url(#arrow)"/>
        <rect x="876" y="90" width="116" height="14" fill="#d5b3ff"/>
        <text x="888" y="101" fill="#000">M4L LIVEAPI</text>
        <path d="M1000 97H1060" stroke="#000" stroke-width="2" marker-end="url(#arrow)"/>
        <rect x="1072" y="90" width="110" height="14" fill="#ff764d"/>
        <text x="1090" y="101" fill="#000">ABLETON LIVE</text>
      </g>
    </g>

    <g id="browser" transform="translate(318 124)">
      <rect x="0" y="0" width="172" height="152" fill="#ece8df" stroke="#000" stroke-width="3"/>
      <rect x="0" y="0" width="172" height="27" fill="#000"/>
      <text x="13" y="19" fill="#fff" font-size="14" font-weight="900">BROWSER</text>
      <g font-size="10" font-weight="900">
        <rect x="12" y="40" width="148" height="18" fill="#b6ffc0" stroke="#000" stroke-width="1"/>
        <text x="22" y="53" fill="#000">Codex stdio profile</text>
        <rect x="12" y="64" width="148" height="18" fill="#b1c5ff" stroke="#000" stroke-width="1"/>
        <text x="22" y="77" fill="#000">Docker MCP bridge</text>
        <rect x="12" y="88" width="148" height="18" fill="#fbffa7" stroke="#000" stroke-width="1"/>
        <text x="22" y="101" fill="#000">Live smoke suite</text>
        <rect x="12" y="112" width="148" height="18" fill="#d5b3ff" stroke="#000" stroke-width="1"/>
        <text x="22" y="125" fill="#000">Samples and staging</text>
        <rect x="12" y="137" width="34" height="5" fill="#000"/>
        <rect x="54" y="137" width="34" height="5" fill="#00c781"/>
        <rect x="96" y="137" width="34" height="5" fill="#0000ff"/>
      </g>
      <g fill="#000">
        <circle cx="146" cy="49" r="3"/>
        <circle cx="146" cy="73" r="3"/>
        <circle cx="146" cy="97" r="3"/>
        <circle cx="146" cy="121" r="3"/>
      </g>
    </g>

    <g id="arrangement" transform="translate(506 124)">
      <rect x="0" y="0" width="494" height="58" fill="#252525" stroke="#000" stroke-width="3"/>
      <rect x="0" y="0" width="494" height="20" fill="#3b3b3b"/>
      <g fill="#fff" font-size="10" font-weight="900">
        <text x="12" y="14">ARRANGEMENT PLAN</text>
        <text x="204" y="14">dry-run first</text>
        <text x="388" y="14">write gate off</text>
      </g>
      <g stroke="#555" stroke-width="1">
        <path d="M62 20V58M124 20V58M186 20V58M248 20V58M310 20V58M372 20V58M434 20V58"/>
      </g>
      <rect x="12" y="28" width="78" height="16" fill="#b6ffc0"/>
      <rect x="94" y="28" width="44" height="16" fill="#ff764d"/>
      <rect x="144" y="28" width="98" height="16" fill="#b1c5ff"/>
      <rect x="252" y="28" width="64" height="16" fill="#fbffa7"/>
      <rect x="322" y="28" width="92" height="16" fill="#d5b3ff"/>
      <rect x="424" y="28" width="54" height="16" fill="#0000ff"/>
      <path d="M20 51C66 34 90 62 128 47S196 32 236 49S294 60 338 42S418 36 474 51" fill="none" stroke="#b6ffc0" stroke-width="3"/>
      <g fill="#fff" font-size="8" font-weight="900">
        <text x="18" y="39">intro</text>
        <text x="153" y="39">scan</text>
        <text x="264" y="39">plan</text>
        <text x="336" y="39">bridge</text>
        <text x="432" y="39">render</text>
      </g>
    </g>

    <g id="session-grid" transform="translate(506 194)">
      <rect x="0" y="0" width="494" height="82" fill="#1a1a1a" stroke="#000" stroke-width="3"/>
      <g fill="#fff" font-size="10" font-weight="900">
        <text x="18" y="16">BRIDGE</text>
        <text x="92" y="16">TRACKS</text>
        <text x="170" y="16">SCENES</text>
        <text x="248" y="16">CLIPS</text>
        <text x="330" y="16">MIX</text>
        <text x="410" y="16">EXPORT</text>
      </g>
      <g stroke="#444" stroke-width="1">
        <path d="M0 24H494M0 44H494M0 64H494"/>
        <path d="M76 0V82M152 0V82M228 0V82M304 0V82M380 0V82M456 0V82"/>
      </g>
      <g>
        <rect x="12" y="28" width="52" height="12" fill="#b6ffc0"/>
        <rect x="88" y="28" width="52" height="12" fill="#ff764d"/>
        <rect x="164" y="28" width="52" height="12" fill="#fbffa7"/>
        <rect x="240" y="28" width="52" height="12" fill="#d5b3ff"/>
        <rect x="316" y="28" width="52" height="12" fill="#0000ff"/>
        <rect x="392" y="28" width="52" height="12" fill="#b1c5ff"/>
        <rect x="12" y="48" width="52" height="12" fill="#ff764d"/>
        <rect x="88" y="48" width="52" height="12" fill="#d5b3ff"/>
        <rect x="164" y="48" width="52" height="12" fill="#b1c5ff"/>
        <rect x="240" y="48" width="52" height="12" fill="#b6ffc0"/>
        <rect x="316" y="48" width="52" height="12" fill="#fbffa7"/>
        <rect x="392" y="48" width="52" height="12" fill="#ff764d"/>
        <rect x="468" y="28" width="12" height="12" fill="#b6ffc0"/>
        <rect x="468" y="48" width="12" height="12" fill="#0000ff"/>
        <rect x="482" y="28" width="5" height="32" fill="#fbffa7"/>
      </g>
      <g fill="#00d084">
        <rect x="18" y="66" width="7" height="11"/>
        <rect x="94" y="60" width="7" height="17"/>
        <rect x="170" y="56" width="7" height="21"/>
        <rect x="246" y="52" width="7" height="25"/>
        <rect x="322" y="58" width="7" height="19"/>
        <rect x="398" y="50" width="7" height="27"/>
        <rect x="462" y="56" width="7" height="21"/>
      </g>
    </g>

    <g id="inspector" transform="translate(1016 124)">
      <rect x="0" y="0" width="184" height="152" fill="#ece8df" stroke="#000" stroke-width="3"/>
      <rect x="0" y="0" width="184" height="27" fill="#000"/>
      <text x="13" y="19" fill="#fff" font-size="14" font-weight="900">CONTROL LANES</text>
      <rect x="14" y="42" width="156" height="18" fill="#b6ffc0" stroke="#000" stroke-width="1"/>
      <rect x="14" y="68" width="156" height="18" fill="#fbffa7" stroke="#000" stroke-width="1"/>
      <rect x="14" y="94" width="156" height="18" fill="#d5b3ff" stroke="#000" stroke-width="1"/>
      <text x="24" y="55" fill="#000" font-size="10" font-weight="900">snapshot reads</text>
      <text x="24" y="81" fill="#000" font-size="10" font-weight="900">dry-run write plans</text>
      <text x="24" y="107" fill="#000" font-size="10" font-weight="900">UI only by consent</text>
      <g stroke="#000" stroke-width="2" fill="#f7f4ec">
        <circle cx="38" cy="132" r="12"/>
        <circle cx="92" cy="132" r="12"/>
        <circle cx="146" cy="132" r="12"/>
        <path d="M38 132L46 123M92 132L84 122M146 132L156 138"/>
      </g>
      <g fill="#000" font-size="7" font-weight="900" text-anchor="middle">
        <text x="38" y="149">READ</text>
        <text x="92" y="149">WRITE</text>
        <text x="146" y="149">UI</text>
      </g>
    </g>

    <g id="device-rack" transform="translate(318 292)">
      <rect x="0" y="0" width="882" height="54" fill="#ece8df" stroke="#000" stroke-width="3"/>
      <rect x="12" y="10" width="94" height="32" fill="#000"/>
      <text x="22" y="24" fill="#fff" font-size="11" font-weight="900">DEVICE</text>
      <text x="22" y="38" fill="#b6ffc0" font-size="11" font-weight="900">RACK</text>
      <g font-size="11" font-weight="900" text-anchor="middle">
        <rect x="132" y="10" width="86" height="32" fill="#b6ffc0" stroke="#000" stroke-width="2"/>
        <text x="175" y="30" fill="#000">SCANNER</text>
        <rect x="232" y="10" width="86" height="32" fill="#b1c5ff" stroke="#000" stroke-width="2"/>
        <text x="275" y="30" fill="#000">BRIDGE</text>
        <rect x="332" y="10" width="86" height="32" fill="#fbffa7" stroke="#000" stroke-width="2"/>
        <text x="375" y="30" fill="#000">SAMPLES</text>
        <rect x="432" y="10" width="86" height="32" fill="#d5b3ff" stroke="#000" stroke-width="2"/>
        <text x="475" y="30" fill="#000">MIX</text>
        <rect x="532" y="10" width="86" height="32" fill="#ff764d" stroke="#000" stroke-width="2"/>
        <text x="575" y="30" fill="#000">EXPORT</text>
      </g>
      <path d="M218 26H232M318 26H332M418 26H432M518 26H532" stroke="#000" stroke-width="3"/>
      <g transform="translate(652 10)">
        <rect x="0" y="0" width="204" height="32" fill="#111"/>
        <path d="M8 21C23 7 38 28 54 15S82 4 99 18S126 31 146 13S176 5 196 22" fill="none" stroke="#b6ffc0" stroke-width="3"/>
        <path d="M8 25H196" stroke="#b1c5ff" stroke-opacity="0.6" stroke-width="1"/>
        <text x="12" y="29" fill="#fff" font-size="8" font-weight="800">diagnostic waveform</text>
      </g>
    </g>

    <g id="footer" transform="translate(318 356)">
      <rect x="0" y="0" width="882" height="22" fill="#000"/>
      <text x="14" y="15" fill="#fff" font-size="12" font-weight="900">LOCAL BY DEFAULT</text>
      <text x="184" y="15" fill="#b6ffc0" font-size="12" font-weight="900">READS SAFE</text>
      <text x="324" y="15" fill="#fbffa7" font-size="12" font-weight="900">WRITES GATED</text>
      <text x="478" y="15" fill="#d5b3ff" font-size="12" font-weight="900">SAMPLES ATTRIBUTED</text>
      <text x="688" y="15" fill="#b1c5ff" font-size="12" font-weight="900">LIVEAPI BRIDGE</text>
    </g>
  </g>
</svg>
