<svg xmlns="http://www.w3.org/2000/svg" width="1280" height="420" viewBox="0 0 1280 420" role="img" aria-labelledby="title desc">
  <title id="title">Ableton MCP README hero</title>
  <desc id="desc">A bright Ableton-inspired README banner with the Ableton-style mark, hard color blocks, and a Live-like session grid.</desc>
  <defs>
    <pattern id="fineGrid" width="24" height="24" patternUnits="userSpaceOnUse">
      <path d="M24 0H0V24" fill="none" stroke="#000" stroke-opacity="0.05" stroke-width="1"/>
    </pattern>
  </defs>

  <rect width="1280" height="420" rx="0" fill="#f7f4ec"/>
  <rect width="1280" height="420" fill="url(#fineGrid)"/>
  <rect x="0" y="0" width="1280" height="18" fill="#000"/>
  <rect x="0" y="402" width="1280" height="18" fill="#000"/>

  <rect x="42" y="42" width="226" height="226" fill="#ff764d"/>
  <rect x="968" y="30" width="270" height="154" fill="#b6ffc0"/>
  <rect x="790" y="226" width="406" height="122" fill="#d5b3ff"/>
  <rect x="616" y="68" width="176" height="112" fill="#b1c5ff"/>
  <rect x="500" y="286" width="164" height="78" fill="#fbffa7"/>

  <g transform="translate(83 76)">
    <rect x="0" y="0" width="144" height="144" fill="#f7f4ec" stroke="#000" stroke-width="5"/>
    <g fill="#000">
      <rect x="24" y="24" width="12" height="96"/>
      <rect x="44" y="24" width="12" height="96"/>
      <rect x="64" y="24" width="12" height="96"/>
      <rect x="84" y="24" width="12" height="96"/>
      <rect x="112" y="32" width="16" height="12"/>
      <rect x="112" y="60" width="16" height="12"/>
      <rect x="112" y="88" width="16" height="12"/>
    </g>
  </g>

  <g transform="translate(312 70)">
    <text x="0" y="46" fill="#000" font-family="Arial Black, Arial, Helvetica, sans-serif" font-size="52" font-weight="900" letter-spacing="0">Ableton MCP</text>
    <text x="0" y="82" fill="#000" font-family="Arial, Helvetica, sans-serif" font-size="21" font-weight="700">Local AI control for Ableton Live, built read-only first.</text>
    <text x="0" y="122" fill="#000" font-family="Arial, Helvetica, sans-serif" font-size="18">MCP clients -> TypeScript server -> Max for Live bridge -> LiveAPI</text>
  </g>

  <g transform="translate(314 234)" font-family="Arial, Helvetica, sans-serif" font-size="15" font-weight="800">
    <rect x="0" y="0" width="154" height="34" fill="#000"/>
    <text x="18" y="23" fill="#fff">READ-ONLY FIRST</text>
    <rect x="166" y="0" width="134" height="34" fill="#0000ff"/>
    <text x="184" y="23" fill="#fff">WRITE-GATED</text>
    <rect x="312" y="0" width="140" height="34" fill="#ff764d"/>
    <text x="330" y="23" fill="#000">LOCAL HOST</text>
    <rect x="464" y="0" width="118" height="34" fill="#b6ffc0"/>
    <text x="482" y="23" fill="#000">248 TOOLS</text>
  </g>

  <g transform="translate(314 294)">
    <rect x="0" y="0" width="704" height="76" fill="#111" stroke="#000" stroke-width="4"/>
    <g stroke="#333" stroke-width="1">
      <path d="M88 0V76M176 0V76M264 0V76M352 0V76M440 0V76M528 0V76M616 0V76"/>
      <path d="M0 38H704"/>
    </g>
    <rect x="10" y="9" width="66" height="20" fill="#ff764d"/>
    <rect x="98" y="9" width="66" height="20" fill="#b6ffc0"/>
    <rect x="186" y="9" width="66" height="20" fill="#b1c5ff"/>
    <rect x="274" y="9" width="66" height="20" fill="#fbffa7"/>
    <rect x="362" y="9" width="66" height="20" fill="#d5b3ff"/>
    <rect x="450" y="9" width="66" height="20" fill="#0000ff"/>
    <rect x="538" y="9" width="66" height="20" fill="#ff764d"/>
    <rect x="626" y="9" width="66" height="20" fill="#b6ffc0"/>
    <rect x="10" y="47" width="66" height="20" fill="#d5b3ff"/>
    <rect x="98" y="47" width="66" height="20" fill="#fbffa7"/>
    <rect x="186" y="47" width="66" height="20" fill="#ff764d"/>
    <rect x="274" y="47" width="66" height="20" fill="#0000ff"/>
    <rect x="362" y="47" width="66" height="20" fill="#b6ffc0"/>
    <rect x="450" y="47" width="66" height="20" fill="#b1c5ff"/>
    <rect x="538" y="47" width="66" height="20" fill="#fbffa7"/>
    <rect x="626" y="47" width="66" height="20" fill="#d5b3ff"/>
  </g>

  <g transform="translate(1048 214)" font-family="Arial, Helvetica, sans-serif">
    <rect x="0" y="0" width="148" height="134" fill="#000"/>
    <text x="18" y="34" fill="#fff" font-size="16" font-weight="800">SAFE LANES</text>
    <text x="18" y="64" fill="#b6ffc0" font-size="13">LiveAPI bridge</text>
    <text x="18" y="88" fill="#fbffa7" font-size="13">dry-run writes</text>
    <text x="18" y="112" fill="#d5b3ff" font-size="13">UI by choice</text>
  </g>
</svg>
